<?xml version="1.0" encoding="utf-8"?>
<!-- Generator: Adobe Illustrator 14.0.0, SVG Export Plug-In . SVG Version: 6.00 Build 43363)  -->
<!DOCTYPE svg PUBLIC "-//W3C//DTD SVG 1.1//EN" "http://www.w3.org/Graphics/SVG/1.1/DTD/svg11.dtd">
<svg version="1.1" id="Layer_1" xmlns="http://www.w3.org/2000/svg" xmlns:xlink="http://www.w3.org/1999/xlink" x="0px" y="0px"
	 width="792px" height="170.991px" viewBox="0 0 792 170.991" enable-background="new 0 0 792 170.991" xml:space="preserve">
<g>
	<path fill="#221F20" d="M241.078,64.95h-1.664c0-2.357-0.694-3.329-3.471-3.329h-40.789v18.593h27.33
		c2.777,0,3.471-0.974,3.471-3.055h1.664v13.6h-1.664c0-1.806-0.693-2.779-3.471-2.779h-27.33v21.367
		c0,3.19,0.554,3.889,3.746,3.889v1.664h-16.097v-1.664c3.192,0,3.749-0.698,3.749-3.889V59.399c0-3.191-0.557-3.889-3.47-3.889
		v-1.66h52.86c2.776,0,3.471-0.969,3.471-3.328h1.664V64.95z"/>
	<path fill="#221F20" d="M262.168,114.899v-1.664c2.911,0,3.466-0.698,3.466-3.889V59.399c0-3.191-0.555-3.889-3.466-3.889v-1.66
		h15.538v1.66c-2.914,0-3.47,0.697-3.47,3.889v49.947c0,3.19,0.556,3.889,3.47,3.889v1.664H262.168z"/>
	<path fill="#221F20" d="M317.386,61.621h19.84c17.206,0,23.865,10.269,23.865,22.751c0,12.489-6.659,22.758-23.865,22.758h-19.84
		V61.621z M308.783,109.347c0,3.19-0.555,3.889-3.468,3.889v1.664h33.577c21.922,0,31.354-13.32,31.354-30.527
		c0-17.202-9.432-30.521-31.354-30.521h-33.577v1.66c2.913,0,3.468,0.697,3.468,3.889V109.347z"/>
	<path fill="#221F20" d="M454.741,95.476c0.138,15.538-16.51,20.253-30.522,20.253c-14.014,0-30.663-4.715-30.525-20.253V59.399
		c0-3.191-0.554-3.889-2.913-3.889v-1.66h14.428v1.66c-2.358,0-2.911,0.697-2.911,3.889v34.273c0,10.542,8.74,14.29,21.922,14.29
		c13.179,0,21.919-3.748,21.919-14.29V59.399c0-3.191-0.553-3.889-2.912-3.889v-1.66h14.43v1.66c-2.356,0-2.914,0.697-2.914,3.889
		V95.476z"/>
	<path fill="#221F20" d="M533.268,71.89l-1.664-0.834c0.275-0.692,0.275-1.667,0.275-2.354c0-2.225-10.685-7.908-20.671-7.908
		c-15.955,0-25.53,10.817-25.53,23.722c0,12.901,9.852,22.615,24.282,22.615c14.563,0,22.753-7.069,22.753-9.438
		c0-0.966-0.278-2.084-0.558-2.771l1.394-0.833l9.708,12.761l-1.526,1.114c-1.386-1.114-2.081-1.253-2.631-1.253
		c-3.334,0-11.102,9.019-28.726,9.019c-18.869,0-33.854-11.24-33.854-31.214c0-19.838,15.54-31.494,34.409-31.494
		c7.908,0,12.35,0.966,17.896,2.917c3.61,1.248,6.108,2.628,7.358,2.628c0.969,0,1.667-0.692,2.219-1.526l1.667,0.555L533.268,71.89
		z"/>
	<path fill="#221F20" d="M562.824,114.899v-1.664c2.909,0,3.462-0.698,3.462-3.889V59.399c0-3.191-0.553-3.889-3.462-3.889v-1.66
		h15.538v1.66c-2.915,0-3.47,0.697-3.47,3.889v49.947c0,3.19,0.555,3.889,3.47,3.889v1.664H562.824z"/>
	<path fill="#221F20" d="M644.961,89.097H617.9l13.047-29.14L644.961,89.097z M611.938,114.899v-1.664
		c-2.774,0-3.745-0.553-3.745-1.667c0-0.834,1.109-2.495,1.802-4.16l4.715-10.547h33.719l5.687,11.651
		c0.417,0.979,0.829,1.808,0.829,3.056c0,1.114-0.829,1.667-4.158,1.667v1.664h17.476v-1.664c-2.909,0-3.743-1.526-4.298-2.776
		l-23.727-50.502c-0.414-0.967-0.967-1.806-0.967-2.771c0-1.248,1.806-1.675,3.188-1.675v-1.66h-22.481v1.392
		c2.503,0.138,3.475,1.104,3.475,1.943c0,0.688-0.139,1.104-0.695,2.356l-21.917,50.224c-0.831,2.079-1.526,3.47-4.441,3.47v1.664
		H611.938z"/>
	<path fill="#221F20" d="M744.715,117.952h-1.665c0-2.081-0.692-3.053-3.472-3.053h-55.631v-1.664c2.909,0,3.464-0.698,3.464-3.889
		V59.399c0-3.191-0.555-3.889-3.464-3.889v-1.66h15.537v1.66c-2.914,0-3.472,0.697-3.472,3.889v47.73h43.565
		c2.779,0,3.472-0.969,3.472-4.168h1.665V117.952z"/>
	<path fill="#221F20" d="M124.888,23.311H62.34c-16.795,0-30.405,13.617-30.405,30.41v63.623c0,16.793,13.61,30.408,30.405,30.408
		h62.548c16.801,0,30.416-13.615,30.416-30.408V53.721C155.304,36.928,141.688,23.311,124.888,23.311z M142.32,113.818
		c0,12.592-10.21,20.523-22.805,20.523H67.719c-12.596,0-22.808-10.209-22.808-22.81l0.057-26.357
		c2.842,8.67,24.939,7.327,24.939,7.327s31.111,0,51.495,0c20.381,0,20.918,20.833,20.918,20.833V113.818z M142.32,86.066
		c-3.596-8.58-19.844-7.504-19.844-7.504s-24.139,0-51.496,0c-26.12,0-25.744-16.722-25.744-16.722l-0.325-2.312
		c0-12.6,3.702-22.807,22.808-22.807h51.797c15.995,0.267,22.805,10.207,22.805,22.807V86.066z"/>
	<path fill="#221F20" d="M753.745,54.498c3.516,0,6.32,2.861,6.32,6.44c0,3.636-2.805,6.469-6.354,6.469
		c-3.519,0-6.379-2.833-6.379-6.469c0-3.579,2.86-6.44,6.379-6.44H753.745z M753.712,55.5c-2.833,0-5.149,2.432-5.149,5.438
		c0,3.061,2.316,5.467,5.183,5.467c2.858,0.028,5.146-2.406,5.146-5.436c0-3.038-2.288-5.47-5.146-5.47H753.712z M752.51,64.687
		h-1.143v-7.182c0.601-0.085,1.174-0.174,2.03-0.174c1.092,0,1.803,0.232,2.234,0.544c0.427,0.317,0.657,0.801,0.657,1.488
		c0,0.944-0.632,1.517-1.403,1.744v0.062c0.631,0.115,1.058,0.683,1.204,1.746c0.171,1.112,0.343,1.544,0.455,1.771h-1.199
		c-0.177-0.228-0.346-0.884-0.488-1.833c-0.172-0.912-0.629-1.255-1.545-1.255h-0.803V64.687z M752.51,60.711h0.831
		c0.943,0,1.746-0.343,1.746-1.232c0-0.632-0.455-1.261-1.746-1.261c-0.373,0-0.629,0.031-0.831,0.062V60.711z"/>
</g>
</svg>
